<mxfile host="app.diagrams.net" modified="2023-05-12T07:48:19.355Z" agent="Mozilla/5.0 (Windows NT 10.0; Win64; x64) AppleWebKit/537.36 (KHTML, like Gecko) Chrome/110.0.0.0 YaBrowser/23.3.3.721 Yowser/2.5 Safari/537.36" etag="Ekg4OjaHdBB3OOY08NWv" version="21.2.9" type="device">
  <diagram name="Страница 1" id="IqSV9sr5vwiuWyxHhMdg">
    <mxGraphModel dx="1155" dy="659" grid="1" gridSize="10" guides="1" tooltips="1" connect="1" arrows="1" fold="1" page="1" pageScale="1" pageWidth="827" pageHeight="1169" math="0" shadow="0">
      <root>
        <mxCell id="0" />
        <mxCell id="1" parent="0" />
        <mxCell id="vYrcQ3W0M4RZj_8dDawX-1" value="" style="fontColor=#0066CC;verticalAlign=top;verticalLabelPosition=bottom;labelPosition=center;align=center;html=1;outlineConnect=0;fillColor=#CCCCCC;strokeColor=#6881B3;gradientColor=none;gradientDirection=north;strokeWidth=2;shape=mxgraph.networks.pc;" vertex="1" parent="1">
          <mxGeometry x="440" y="610" width="66" height="50" as="geometry" />
        </mxCell>
        <mxCell id="vYrcQ3W0M4RZj_8dDawX-2" value="" style="fontColor=#0066CC;verticalAlign=top;verticalLabelPosition=bottom;labelPosition=center;align=center;html=1;outlineConnect=0;fillColor=#CCCCCC;strokeColor=#6881B3;gradientColor=none;gradientDirection=north;strokeWidth=2;shape=mxgraph.networks.pc;" vertex="1" parent="1">
          <mxGeometry x="520" y="610" width="66" height="50" as="geometry" />
        </mxCell>
        <mxCell id="vYrcQ3W0M4RZj_8dDawX-3" value="" style="fontColor=#0066CC;verticalAlign=top;verticalLabelPosition=bottom;labelPosition=center;align=center;html=1;outlineConnect=0;fillColor=#CCCCCC;strokeColor=#6881B3;gradientColor=none;gradientDirection=north;strokeWidth=2;shape=mxgraph.networks.pc;" vertex="1" parent="1">
          <mxGeometry x="440" y="530" width="66" height="50" as="geometry" />
        </mxCell>
        <mxCell id="vYrcQ3W0M4RZj_8dDawX-4" value="" style="fontColor=#0066CC;verticalAlign=top;verticalLabelPosition=bottom;labelPosition=center;align=center;html=1;outlineConnect=0;fillColor=#CCCCCC;strokeColor=#6881B3;gradientColor=none;gradientDirection=north;strokeWidth=2;shape=mxgraph.networks.pc;" vertex="1" parent="1">
          <mxGeometry x="520" y="530" width="66" height="50" as="geometry" />
        </mxCell>
        <mxCell id="vYrcQ3W0M4RZj_8dDawX-5" value="" style="fontColor=#0066CC;verticalAlign=top;verticalLabelPosition=bottom;labelPosition=center;align=center;html=1;outlineConnect=0;fillColor=#CCCCCC;strokeColor=#6881B3;gradientColor=none;gradientDirection=north;strokeWidth=2;shape=mxgraph.networks.pc;rotation=0;" vertex="1" parent="1">
          <mxGeometry x="520" y="360" width="66" height="50" as="geometry" />
        </mxCell>
        <mxCell id="vYrcQ3W0M4RZj_8dDawX-6" value="" style="fontColor=#0066CC;verticalAlign=top;verticalLabelPosition=bottom;labelPosition=center;align=center;html=1;outlineConnect=0;fillColor=#CCCCCC;strokeColor=#6881B3;gradientColor=none;gradientDirection=north;strokeWidth=2;shape=mxgraph.networks.pc;rotation=0;" vertex="1" parent="1">
          <mxGeometry x="440" y="360" width="66" height="50" as="geometry" />
        </mxCell>
        <mxCell id="vYrcQ3W0M4RZj_8dDawX-7" value="" style="fontColor=#0066CC;verticalAlign=top;verticalLabelPosition=bottom;labelPosition=center;align=center;html=1;outlineConnect=0;fillColor=#CCCCCC;strokeColor=#6881B3;gradientColor=none;gradientDirection=north;strokeWidth=2;shape=mxgraph.networks.pc;rotation=0;" vertex="1" parent="1">
          <mxGeometry x="240" y="360" width="66" height="50" as="geometry" />
        </mxCell>
        <mxCell id="vYrcQ3W0M4RZj_8dDawX-8" value="" style="fontColor=#0066CC;verticalAlign=top;verticalLabelPosition=bottom;labelPosition=center;align=center;html=1;outlineConnect=0;fillColor=#CCCCCC;strokeColor=#6881B3;gradientColor=none;gradientDirection=north;strokeWidth=2;shape=mxgraph.networks.pc;rotation=0;" vertex="1" parent="1">
          <mxGeometry x="156" y="360" width="66" height="50" as="geometry" />
        </mxCell>
        <mxCell id="vYrcQ3W0M4RZj_8dDawX-9" value="" style="fontColor=#0066CC;verticalAlign=top;verticalLabelPosition=bottom;labelPosition=center;align=center;html=1;outlineConnect=0;fillColor=#CCCCCC;strokeColor=#6881B3;gradientColor=none;gradientDirection=north;strokeWidth=2;shape=mxgraph.networks.pc;rotation=0;" vertex="1" parent="1">
          <mxGeometry x="110" y="450" width="66" height="50" as="geometry" />
        </mxCell>
        <mxCell id="vYrcQ3W0M4RZj_8dDawX-10" value="" style="fontColor=#0066CC;verticalAlign=top;verticalLabelPosition=bottom;labelPosition=center;align=center;html=1;outlineConnect=0;fillColor=#CCCCCC;strokeColor=#6881B3;gradientColor=none;gradientDirection=north;strokeWidth=2;shape=mxgraph.networks.pc;rotation=0;" vertex="1" parent="1">
          <mxGeometry x="110" y="520" width="66" height="50" as="geometry" />
        </mxCell>
        <mxCell id="vYrcQ3W0M4RZj_8dDawX-13" value="" style="fontColor=#0066CC;verticalAlign=top;verticalLabelPosition=bottom;labelPosition=center;align=center;html=1;outlineConnect=0;fillColor=#CCCCCC;strokeColor=#6881B3;gradientColor=none;gradientDirection=north;strokeWidth=2;shape=mxgraph.networks.printer;" vertex="1" parent="1">
          <mxGeometry x="350" y="355" width="50" height="60" as="geometry" />
        </mxCell>
        <mxCell id="vYrcQ3W0M4RZj_8dDawX-16" value="" style="image;points=[];aspect=fixed;html=1;align=center;shadow=0;dashed=0;image=img/lib/allied_telesis/computer_and_terminals/Server_Desktop.svg;" vertex="1" parent="1">
          <mxGeometry x="96.7" y="700" width="42.599999999999994" height="54" as="geometry" />
        </mxCell>
        <mxCell id="vYrcQ3W0M4RZj_8dDawX-17" value="" style="ellipse;shape=cloud;whiteSpace=wrap;html=1;" vertex="1" parent="1">
          <mxGeometry x="75.14999999999999" y="770" width="89.7" height="50" as="geometry" />
        </mxCell>
        <mxCell id="vYrcQ3W0M4RZj_8dDawX-19" value="" style="endArrow=none;html=1;rounded=0;exitX=1;exitY=0.5;exitDx=0;exitDy=0;exitPerimeter=0;fillColor=#f8cecc;strokeColor=#b85450;" edge="1" parent="1" source="vYrcQ3W0M4RZj_8dDawX-2">
          <mxGeometry width="50" height="50" relative="1" as="geometry">
            <mxPoint x="640" y="640" as="sourcePoint" />
            <mxPoint x="640" y="635" as="targetPoint" />
          </mxGeometry>
        </mxCell>
        <mxCell id="vYrcQ3W0M4RZj_8dDawX-22" value="" style="endArrow=none;html=1;rounded=0;exitX=0.5;exitY=0.07;exitDx=0;exitDy=0;exitPerimeter=0;fillColor=#f8cecc;strokeColor=#b85450;" edge="1" parent="1" source="vYrcQ3W0M4RZj_8dDawX-1">
          <mxGeometry width="50" height="50" relative="1" as="geometry">
            <mxPoint x="596" y="645" as="sourcePoint" />
            <mxPoint x="640" y="600" as="targetPoint" />
            <Array as="points">
              <mxPoint x="473" y="600" />
            </Array>
          </mxGeometry>
        </mxCell>
        <mxCell id="vYrcQ3W0M4RZj_8dDawX-24" value="" style="endArrow=none;html=1;rounded=0;exitX=1;exitY=0.5;exitDx=0;exitDy=0;exitPerimeter=0;fillColor=#f8cecc;strokeColor=#b85450;" edge="1" parent="1" source="vYrcQ3W0M4RZj_8dDawX-4">
          <mxGeometry width="50" height="50" relative="1" as="geometry">
            <mxPoint x="690" y="560" as="sourcePoint" />
            <mxPoint x="640" y="555" as="targetPoint" />
          </mxGeometry>
        </mxCell>
        <mxCell id="vYrcQ3W0M4RZj_8dDawX-26" value="" style="endArrow=none;html=1;rounded=0;exitX=0.5;exitY=0.07;exitDx=0;exitDy=0;exitPerimeter=0;fillColor=#f8cecc;strokeColor=#b85450;" edge="1" parent="1" source="vYrcQ3W0M4RZj_8dDawX-3">
          <mxGeometry width="50" height="50" relative="1" as="geometry">
            <mxPoint x="510" y="530" as="sourcePoint" />
            <mxPoint x="640" y="520" as="targetPoint" />
            <Array as="points">
              <mxPoint x="473" y="520" />
            </Array>
          </mxGeometry>
        </mxCell>
        <mxCell id="vYrcQ3W0M4RZj_8dDawX-28" value="" style="endArrow=none;html=1;rounded=0;fillColor=#f8cecc;strokeColor=#b85450;" edge="1" parent="1">
          <mxGeometry width="50" height="50" relative="1" as="geometry">
            <mxPoint x="640" y="640" as="sourcePoint" />
            <mxPoint x="640" y="320" as="targetPoint" />
          </mxGeometry>
        </mxCell>
        <mxCell id="vYrcQ3W0M4RZj_8dDawX-29" value="" style="endArrow=none;html=1;rounded=0;fillColor=#f8cecc;strokeColor=#b85450;" edge="1" parent="1">
          <mxGeometry width="50" height="50" relative="1" as="geometry">
            <mxPoint x="80" y="320" as="sourcePoint" />
            <mxPoint x="640" y="320" as="targetPoint" />
          </mxGeometry>
        </mxCell>
        <mxCell id="vYrcQ3W0M4RZj_8dDawX-30" value="" style="endArrow=none;html=1;rounded=0;fillColor=#f8cecc;strokeColor=#b85450;" edge="1" parent="1">
          <mxGeometry width="50" height="50" relative="1" as="geometry">
            <mxPoint x="80" y="320" as="sourcePoint" />
            <mxPoint x="80" y="600" as="targetPoint" />
          </mxGeometry>
        </mxCell>
        <mxCell id="vYrcQ3W0M4RZj_8dDawX-31" value="" style="endArrow=none;html=1;rounded=0;exitX=0.5;exitY=0.07;exitDx=0;exitDy=0;exitPerimeter=0;fillColor=#f8cecc;strokeColor=#b85450;" edge="1" parent="1" source="vYrcQ3W0M4RZj_8dDawX-5">
          <mxGeometry width="50" height="50" relative="1" as="geometry">
            <mxPoint x="700" y="360" as="sourcePoint" />
            <mxPoint x="553" y="320" as="targetPoint" />
          </mxGeometry>
        </mxCell>
        <mxCell id="vYrcQ3W0M4RZj_8dDawX-32" value="" style="endArrow=none;html=1;rounded=0;exitX=0.5;exitY=0.07;exitDx=0;exitDy=0;exitPerimeter=0;fillColor=#f8cecc;strokeColor=#b85450;" edge="1" parent="1" source="vYrcQ3W0M4RZj_8dDawX-6">
          <mxGeometry width="50" height="50" relative="1" as="geometry">
            <mxPoint x="600" y="380" as="sourcePoint" />
            <mxPoint x="473" y="320" as="targetPoint" />
          </mxGeometry>
        </mxCell>
        <mxCell id="vYrcQ3W0M4RZj_8dDawX-33" value="" style="endArrow=none;html=1;rounded=0;exitX=0.5;exitY=0.07;exitDx=0;exitDy=0;exitPerimeter=0;fillColor=#f8cecc;strokeColor=#b85450;" edge="1" parent="1" source="vYrcQ3W0M4RZj_8dDawX-7">
          <mxGeometry width="50" height="50" relative="1" as="geometry">
            <mxPoint x="320" y="390" as="sourcePoint" />
            <mxPoint x="273" y="320" as="targetPoint" />
          </mxGeometry>
        </mxCell>
        <mxCell id="vYrcQ3W0M4RZj_8dDawX-34" value="" style="endArrow=none;html=1;rounded=0;exitX=0.5;exitY=0.07;exitDx=0;exitDy=0;exitPerimeter=0;fillColor=#f8cecc;strokeColor=#b85450;" edge="1" parent="1" source="vYrcQ3W0M4RZj_8dDawX-8">
          <mxGeometry width="50" height="50" relative="1" as="geometry">
            <mxPoint x="220" y="370" as="sourcePoint" />
            <mxPoint x="189" y="320" as="targetPoint" />
          </mxGeometry>
        </mxCell>
        <mxCell id="vYrcQ3W0M4RZj_8dDawX-36" value="" style="endArrow=none;html=1;rounded=0;fillColor=#f8cecc;strokeColor=#b85450;" edge="1" parent="1" target="vYrcQ3W0M4RZj_8dDawX-9">
          <mxGeometry width="50" height="50" relative="1" as="geometry">
            <mxPoint x="80" y="475" as="sourcePoint" />
            <mxPoint x="300" y="450" as="targetPoint" />
          </mxGeometry>
        </mxCell>
        <mxCell id="vYrcQ3W0M4RZj_8dDawX-37" value="" style="endArrow=none;html=1;rounded=0;fillColor=#f8cecc;strokeColor=#b85450;" edge="1" parent="1" target="vYrcQ3W0M4RZj_8dDawX-10">
          <mxGeometry width="50" height="50" relative="1" as="geometry">
            <mxPoint x="80" y="545" as="sourcePoint" />
            <mxPoint x="310" y="520" as="targetPoint" />
          </mxGeometry>
        </mxCell>
        <mxCell id="vYrcQ3W0M4RZj_8dDawX-38" value="" style="endArrow=none;html=1;rounded=0;fillColor=#f8cecc;strokeColor=#b85450;" edge="1" parent="1">
          <mxGeometry width="50" height="50" relative="1" as="geometry">
            <mxPoint x="80" y="600" as="sourcePoint" />
            <mxPoint x="120" y="600" as="targetPoint" />
          </mxGeometry>
        </mxCell>
        <mxCell id="vYrcQ3W0M4RZj_8dDawX-39" value="" style="endArrow=none;html=1;rounded=0;fillColor=#f8cecc;strokeColor=#b85450;" edge="1" parent="1">
          <mxGeometry width="50" height="50" relative="1" as="geometry">
            <mxPoint x="120" y="600" as="sourcePoint" />
            <mxPoint x="120" y="620" as="targetPoint" />
          </mxGeometry>
        </mxCell>
        <mxCell id="vYrcQ3W0M4RZj_8dDawX-40" value="" style="endArrow=none;html=1;rounded=0;fillColor=#f8cecc;strokeColor=#b85450;" edge="1" parent="1" source="vYrcQ3W0M4RZj_8dDawX-43" target="vYrcQ3W0M4RZj_8dDawX-16">
          <mxGeometry width="50" height="50" relative="1" as="geometry">
            <mxPoint x="120.29999999999995" y="670" as="sourcePoint" />
            <mxPoint x="300" y="700" as="targetPoint" />
          </mxGeometry>
        </mxCell>
        <mxCell id="vYrcQ3W0M4RZj_8dDawX-43" value="" style="image;aspect=fixed;html=1;points=[];align=center;fontSize=12;image=img/lib/azure2/networking/Virtual_Router.svg;" vertex="1" parent="1">
          <mxGeometry x="99" y="616" width="38" height="38" as="geometry" />
        </mxCell>
        <mxCell id="vYrcQ3W0M4RZj_8dDawX-46" value="" style="endArrow=none;html=1;rounded=0;exitX=0.346;exitY=0.974;exitDx=0;exitDy=0;exitPerimeter=0;entryX=0.4;entryY=0.1;entryDx=0;entryDy=0;entryPerimeter=0;fillColor=#f8cecc;strokeColor=#b85450;" edge="1" parent="1" source="vYrcQ3W0M4RZj_8dDawX-16" target="vYrcQ3W0M4RZj_8dDawX-17">
          <mxGeometry width="50" height="50" relative="1" as="geometry">
            <mxPoint x="160" y="810" as="sourcePoint" />
            <mxPoint x="210" y="760" as="targetPoint" />
          </mxGeometry>
        </mxCell>
        <mxCell id="vYrcQ3W0M4RZj_8dDawX-47" value="Ethernet" style="text;html=1;strokeColor=none;fillColor=none;align=center;verticalAlign=middle;whiteSpace=wrap;rounded=0;" vertex="1" parent="1">
          <mxGeometry x="99.5" y="787.5" width="41" height="15" as="geometry" />
        </mxCell>
        <mxCell id="vYrcQ3W0M4RZj_8dDawX-48" value="" style="endArrow=none;html=1;rounded=0;exitX=1;exitY=0.5;exitDx=0;exitDy=0;exitPerimeter=0;fillColor=#f8cecc;strokeColor=#b85450;" edge="1" parent="1" source="vYrcQ3W0M4RZj_8dDawX-13" target="vYrcQ3W0M4RZj_8dDawX-6">
          <mxGeometry width="50" height="50" relative="1" as="geometry">
            <mxPoint x="480" y="490" as="sourcePoint" />
            <mxPoint x="530" y="440" as="targetPoint" />
          </mxGeometry>
        </mxCell>
      </root>
    </mxGraphModel>
  </diagram>
</mxfile>
